# This file uses centimeters as units for non-parametric coordinates.

mtllib IceBlock.mtl
g default
v -0.000000 0.000000 -1.683465
v 0.945978 0.687293 -0.584647
v -0.361332 1.112064 -0.584647
v -1.169293 0.287588 -0.218864
v -0.361332 -1.112064 -0.584647
v 0.945978 -0.687293 -0.584647
v 1.169293 0.000000 1.272722
v 0.361331 0.695426 0.209337
v -0.945978 0.687293 0.584647
v -1.606770 -0.687293 0.584647
v 0.361332 -1.112064 0.584647
v -0.000000 0.000000 1.307310
v -0.375516 -0.272829 1.020441
v -0.945978 0.074100 0.584647
v -1.095905 -0.225865 -0.200383
v -0.630548 -0.741519 -1.045374
v -0.537282 -0.984229 -0.232747
v -0.067597 -1.112064 -0.109375
v -0.244328 -0.915273 0.584647
v 0.303456 0.896061 -0.584647
v 0.875883 0.268720 -1.018059
v -0.206533 0.367935 -0.894244
v -0.623784 0.750829 -0.584647
v -0.489553 1.018906 -0.328204
v -0.063178 0.692785 0.928914
v -0.109470 1.385741 -0.177126
v 0.405010 -0.294257 -0.997909
v 0.485505 0.148952 -1.429732
v -0.074340 0.228795 -1.158630
v -0.318075 -0.000000 -1.110729
v -0.117062 -0.360279 -1.073186
v 0.768563 -0.558394 -0.720179
v 0.481866 -1.096589 -0.584647
v 0.655060 -1.500472 -0.002811
v 0.911449 -0.354892 0.673084
v 1.058654 -0.340512 0.352509
v 0.945978 -0.247702 -0.584647
v -0.585047 -0.000000 -0.945731
v 0.811386 0.145974 0.417075
v 0.391289 -0.670210 1.387068
v 0.143763 0.838422 0.030743
v -0.820110 0.452668 0.112989
v -1.147544 0.892555 -0.269544
v 0.158617 -0.488173 0.990076
v -0.324091 -0.524666 1.227261
vt 1.000000 0.500000
vt 0.838104 0.676208
vt 0.088104 0.823792
vt 0.176208 0.500000
vt 0.088104 0.176208
vt 0.838104 0.323792
vt 0.676208 0.500000
vt 0.588104 0.823792
vt 0.338104 0.676208
vt 0.338104 0.323792
vt 0.588104 0.176208
vt 0.500000 0.500000
vt 1.088104 0.823792
vt 1.176208 0.500000
vt 1.088104 0.176208
vt 0.435734 0.430052
vt 0.338104 0.518998
vt 0.229412 0.442093
vt 1.117461 0.284097
vt 0.117461 0.284097
vt 0.163342 0.220624
vt 0.884874 0.176208
vt 0.291335 0.176208
vt 0.472282 0.244582
vt 0.960975 0.748743
vt 0.906525 0.601739
vt 1.050359 0.685076
vt 1.116723 0.718614
vt 0.116723 0.718614
vt 0.142933 0.791425
vt 0.506924 0.775868
vt 0.913845 0.823792
vt 0.262364 0.823792
vt 0.930686 0.424558
vt 0.948187 0.556394
vt 1.018126 0.566617
vt 1.047933 0.500000
vt 1.028543 0.395100
vt 0.868467 0.356839
vt 0.926857 0.271398
vt 0.713705 0.250355
vt 0.648092 0.396669
vt 0.756418 0.412700
vt 0.838104 0.436494
vt 1.088164 0.500000
vt 0.750790 0.581175
vt 0.643402 0.399941
vt 0.738637 0.823792
vt 0.437572 0.823792
vt 0.243072 0.572775
vt 0.160785 0.635077
vt 0.538676 0.357862
vt 0.450061 0.357348
vn 0.025949 0.486790 -0.873134
vn 0.025949 0.486790 -0.873134
vn 0.025949 0.486790 -0.873134
vn 0.025949 0.486790 -0.873134
vn -0.390031 0.283374 -0.876114
vn -0.390031 0.283374 -0.876114
vn -0.390031 0.283374 -0.876114
vn -0.248746 0.019472 -0.968373
vn -0.248746 0.019472 -0.968373
vn -0.248746 0.019472 -0.968373
vn -0.248746 0.019472 -0.968373
vn 0.187592 -0.577350 -0.794655
vn 0.187592 -0.577350 -0.794655
vn 0.187592 -0.577350 -0.794655
vn 0.732994 -0.312675 -0.604114
vn 0.732995 -0.312675 -0.604114
vn 0.732995 -0.312675 -0.604114
vn 0.237820 0.731935 -0.638524
vn 0.237820 0.731935 -0.638524
vn 0.237820 0.731935 -0.638524
vn -0.794654 0.577350 -0.187593
vn -0.794654 0.577350 -0.187593
vn -0.794654 0.577350 -0.187593
vn -0.737628 -0.525243 -0.424293
vn -0.737628 -0.525243 -0.424293
vn -0.737628 -0.525243 -0.424293
vn -0.737628 -0.525243 -0.424293
vn -0.465735 -0.882908 -0.059694
vn -0.465735 -0.882908 -0.059694
vn -0.465735 -0.882908 -0.059694
vn -0.465735 -0.882908 -0.059694
vn 0.983554 0.168088 0.066092
vn 0.983554 0.168088 0.066092
vn 0.983554 0.168088 0.066092
vn 0.983554 0.168088 0.066092
vn 0.606221 0.662758 0.439600
vn 0.606221 0.662758 0.439600
vn 0.606221 0.662758 0.439600
vn -0.721028 0.618058 0.313245
vn -0.721028 0.618058 0.313245
vn -0.721028 0.618059 0.313245
vn -0.721028 0.618058 0.313245
vn -0.751014 0.651784 -0.105619
vn -0.751014 0.651784 -0.105620
vn -0.751014 0.651784 -0.105619
vn -0.198312 -0.968163 0.152749
vn -0.198312 -0.968163 0.152749
vn -0.198312 -0.968163 0.152749
vn -0.198312 -0.968163 0.152749
vn 0.592111 -0.503669 0.629065
vn 0.592111 -0.503669 0.629065
vn 0.592111 -0.503669 0.629065
vn 0.015936 0.842318 0.538745
vn 0.015936 0.842318 0.538746
vn 0.015936 0.842318 0.538746
vn 0.810725 0.335842 0.479515
vn 0.810725 0.335842 0.479515
vn 0.810725 0.335842 0.479515
vn -0.416925 0.361837 0.833815
vn -0.416925 0.361837 0.833815
vn -0.416925 0.361837 0.833815
vn -0.142823 -0.853532 0.501084
vn -0.142823 -0.853532 0.501084
vn -0.142823 -0.853532 0.501084
vn -0.842429 -0.458075 0.283690
vn -0.842429 -0.458075 0.283690
vn -0.842429 -0.458075 0.283690
vn -0.607062 -0.000000 0.794655
vn -0.607062 -0.000000 0.794654
vn -0.607062 -0.000000 0.794654
vn -0.607062 -0.000000 0.794654
vn -0.920764 0.228080 0.316502
vn -0.920764 0.228080 0.316503
vn -0.920764 0.228080 0.316502
vn -0.920764 0.228080 0.316503
vn -0.901281 -0.143533 -0.408767
vn -0.901281 -0.143533 -0.408767
vn -0.901281 -0.143533 -0.408767
vn -0.727586 -0.675736 -0.118318
vn -0.727586 -0.675736 -0.118318
vn -0.727586 -0.675736 -0.118318
vn -0.303531 -0.934172 0.187593
vn -0.303531 -0.934172 0.187593
vn -0.303531 -0.934172 0.187593
vn -0.303531 -0.934172 0.187593
vn -0.303531 -0.934172 0.187593
vn -0.303531 -0.934172 0.187593
vn 0.048106 -0.711170 0.701373
vn 0.048106 -0.711170 0.701373
vn 0.048106 -0.711170 0.701373
vn 0.048106 -0.711170 0.701373
vn 0.221980 0.683182 -0.695692
vn 0.221980 0.683182 -0.695692
vn 0.221980 0.683182 -0.695692
vn 0.014458 0.931906 -0.362411
vn 0.014458 0.931906 -0.362411
vn 0.014458 0.931906 -0.362411
vn 0.014458 0.931906 -0.362411
vn -0.518739 0.544880 -0.658799
vn -0.518739 0.544880 -0.658799
vn -0.518739 0.544880 -0.658799
vn -0.518739 0.544880 -0.658799
vn -0.525158 -0.052277 -0.849398
vn -0.525158 -0.052277 -0.849398
vn -0.525158 -0.052277 -0.849398
vn -0.117668 0.950807 0.286567
vn -0.117668 0.950807 0.286567
vn -0.117668 0.950807 0.286567
vn 0.830551 0.486943 0.270318
vn 0.830551 0.486943 0.270318
vn 0.830551 0.486943 0.270318
vn 0.834131 0.485410 0.261922
vn 0.834131 0.485410 0.261922
vn 0.834131 0.485410 0.261922
vn 0.499062 -0.649529 -0.573628
vn 0.499062 -0.649529 -0.573628
vn 0.499062 -0.649529 -0.573628
vn -0.066992 0.911113 -0.406677
vn -0.066992 0.911113 -0.406677
vn -0.066992 0.911113 -0.406677
vn -0.672814 0.638518 -0.373654
vn -0.672814 0.638518 -0.373654
vn -0.672814 0.638518 -0.373654
vn -0.769767 -0.474029 -0.427498
vn -0.769767 -0.474029 -0.427498
vn -0.769767 -0.474029 -0.427498
vn 0.177474 -0.861994 -0.474836
vn 0.177474 -0.861994 -0.474836
vn 0.177474 -0.861994 -0.474836
vn 0.954204 -0.105441 -0.279957
vn 0.954204 -0.105441 -0.279957
vn 0.954204 -0.105441 -0.279957
vn 0.954204 -0.105441 -0.279957
vn 0.035289 -0.700692 -0.712590
vn 0.035289 -0.700692 -0.712590
vn 0.035289 -0.700692 -0.712590
vn 0.127801 -0.474061 -0.871167
vn 0.127801 -0.474062 -0.871167
vn 0.127801 -0.474062 -0.871167
vn 0.127801 -0.474061 -0.871167
vn 0.537404 -0.609379 -0.582970
vn 0.537404 -0.609379 -0.582970
vn 0.537404 -0.609379 -0.582970
vn 0.567264 -0.792219 0.224946
vn 0.567264 -0.792219 0.224946
vn 0.567264 -0.792219 0.224946
vn 0.925600 -0.358890 0.120261
vn 0.925600 -0.358890 0.120260
vn 0.925600 -0.358890 0.120260
vn 0.925600 -0.358890 0.120260
vn 0.992850 0.000000 -0.119372
vn 0.992850 0.000000 -0.119372
vn 0.992850 0.000000 -0.119372
vn 0.607062 -0.000000 -0.794654
vn 0.607062 -0.000000 -0.794654
vn 0.607062 -0.000000 -0.794655
vn 0.353870 -0.401263 -0.844846
vn 0.353870 -0.401263 -0.844846
vn 0.353870 -0.401263 -0.844846
vn -0.746007 0.133449 -0.652430
vn -0.746007 0.133449 -0.652430
vn -0.746007 0.133449 -0.652430
vn -0.559598 0.335561 -0.757792
vn -0.559598 0.335561 -0.757792
vn -0.559598 0.335561 -0.757792
vn -0.559598 0.335561 -0.757792
vn 0.793593 0.560690 -0.236297
vn 0.793593 0.560690 -0.236297
vn 0.793593 0.560690 -0.236297
vn 0.842431 0.464437 -0.273146
vn 0.842431 0.464437 -0.273146
vn 0.842431 0.464437 -0.273146
vn 0.029296 0.134969 0.990417
vn 0.029296 0.134969 0.990417
vn 0.029296 0.134969 0.990417
vn 0.756795 -0.584111 0.293387
vn 0.756795 -0.584111 0.293387
vn 0.756795 -0.584111 0.293387
vn 0.657787 -0.737383 0.153567
vn 0.657787 -0.737383 0.153567
vn 0.657787 -0.737383 0.153567
vn -0.330502 0.429024 0.840659
vn -0.330502 0.429024 0.840659
vn -0.330502 0.429024 0.840659
vn 0.392083 0.889521 0.234571
vn 0.392083 0.889521 0.234571
vn 0.392083 0.889521 0.234571
vn 0.332924 0.919697 0.208135
vn 0.332924 0.919697 0.208135
vn 0.332924 0.919697 0.208135
vn 0.332924 0.919697 0.208135
vn -0.707078 0.084237 0.702101
vn -0.707078 0.084237 0.702101
vn -0.707078 0.084237 0.702101
vn -0.966187 0.000000 -0.257841
vn -0.966187 0.000000 -0.257841
vn -0.966187 0.000000 -0.257841
vn -0.689026 0.650769 0.318971
vn -0.689026 0.650769 0.318971
vn -0.689026 0.650769 0.318971
vn -0.689026 0.650769 0.318971
vn -0.198261 0.727551 -0.656782
vn -0.198261 0.727551 -0.656782
vn -0.198261 0.727551 -0.656782
vn -0.842429 -0.458075 0.283690
vn -0.842429 -0.458075 0.283690
vn -0.842429 -0.458075 0.283690
vn -0.003691 -0.148596 0.988891
vn -0.003691 -0.148596 0.988891
vn -0.003691 -0.148596 0.988891
vn -0.003691 -0.148596 0.988891
vn -0.434954 0.516769 0.737404
vn -0.434954 0.516769 0.737404
vn -0.434954 0.516770 0.737404
vn 0.018349 -0.999767 -0.011340
vn 0.018349 -0.999767 -0.011340
vn 0.018349 -0.999767 -0.011340
vn 0.397866 -0.587299 -0.704828
vn 0.397866 -0.587299 -0.704828
vn 0.397866 -0.587299 -0.704828
s off
g pPlatonic2
usemtl initialShadingGroup
f 21/26/1 22/27/2 3/13/3 20/25/4
f 22/27/5 23/28/6 3/13/7
f 30/37/8 31/38/9 16/19/10 38/45/11
f 31/38/12 27/34/13 32/39/14
f 32/39/15 28/35/16 21/26/17
f 26/32/18 20/25/19 3/13/20
f 3/3/21 23/29/22 24/30/23
f 15/18/24 16/20/25 17/21/26 10/10/27
f 18/22/28 33/40/29 34/41/30 11/11/31
f 36/43/32 37/44/33 2/2/34 39/46/35
f 2/2/36 8/8/37 39/46/38
f 3/3/39 24/30/40 25/31/41 26/33/42
f 14/17/43 15/18/44 10/10/45
f 17/21/46 18/23/47 19/24/48 10/10/49
f 34/41/50 35/42/51 11/11/52
f 7/7/53 8/8/54 12/12/55
f 8/8/56 25/31/57 12/12/58
f 13/16/59 14/17/60 10/10/61
f 10/10/62 19/24/63 45/53/64
f 11/11/65 40/47/66 44/52/67
f 9/9/68 14/17/69 13/16/70 12/12/71
f 4/4/72 15/18/73 14/17/74 42/50/75
f 4/4/76 16/20/77 15/18/78
f 17/21/79 16/20/80 5/5/81
f 5/5/82 18/23/83 17/21/84
f 19/24/85 18/23/86 11/11/87
f 44/52/88 45/53/89 19/24/90 11/11/91
f 21/26/92 20/25/93 2/2/94
f 28/35/95 29/36/96 22/27/97 21/26/98
f 29/36/99 30/37/100 38/45/101 22/27/102
f 43/51/103 23/29/104 4/4/105
f 25/31/106 24/30/107 9/9/108
f 26/33/109 25/31/110 41/49/111
f 41/48/112 20/25/113 26/32/114
f 1/1/115 28/35/116 27/34/117
f 1/1/118 29/36/119 28/35/120
f 1/1/121 30/37/122 29/36/123
f 1/1/124 31/38/125 30/37/126
f 1/1/127 27/34/128 31/38/129
f 32/39/130 21/26/131 2/2/132 37/44/133
f 27/34/134 28/35/135 32/39/136
f 31/38/137 32/39/138 33/40/139 5/15/140
f 34/41/141 33/40/142 6/6/143
f 35/42/144 36/43/145 7/7/146
f 6/6/147 36/43/148 35/42/149 34/41/150
f 6/6/151 37/44/152 36/43/153
f 32/39/154 37/44/155 6/6/156
f 33/40/157 32/39/158 6/6/159
f 38/45/160 16/19/161 4/14/162
f 22/27/163 38/45/164 4/14/165 23/28/166
f 39/46/167 8/8/168 7/7/169
f 36/43/170 39/46/171 7/7/172
f 12/12/173 40/47/174 7/7/175
f 11/11/176 35/42/177 40/47/178
f 7/7/179 40/47/180 35/42/181
f 12/12/182 25/31/183 9/9/184
f 41/49/185 25/31/186 8/8/187
f 2/2/188 20/25/189 41/48/190 8/8/191
f 42/50/192 43/51/193 4/4/194
f 42/50/195 14/17/196 9/9/197
f 24/30/198 43/51/199 42/50/200 9/9/201
f 24/30/202 23/29/203 43/51/204
f 44/52/205 40/47/206 12/12/207
f 13/16/208 45/53/209 44/52/210 12/12/211
f 10/10/212 45/53/213 13/16/214
f 5/15/215 33/40/216 18/22/217
f 16/19/218 31/38/219 5/15/220
